<svg width="140" height="44" viewBox="0 0 140 44" fill="none" xmlns="http://www.w3.org/2000/svg">
<path d="M51.462 30.1415C49.734 30.1415 48.384 29.7215 47.412 28.8815C46.44 28.0295 45.924 26.8235 45.864 25.2635C45.852 24.9155 45.846 24.3635 45.846 23.6075C45.846 22.8515 45.852 22.2995 45.864 21.9515C45.924 20.4275 46.446 19.2515 47.43 18.4235C48.426 17.5955 49.77 17.1815 51.462 17.1815C52.602 17.1815 53.592 17.3675 54.432 17.7395C55.284 18.1115 55.932 18.5855 56.376 19.1615C56.832 19.7375 57.072 20.3315 57.096 20.9435C57.096 21.0515 57.054 21.1415 56.97 21.2135C56.898 21.2855 56.808 21.3215 56.7 21.3215H54.072C53.952 21.3215 53.856 21.3035 53.784 21.2675C53.712 21.2315 53.652 21.1655 53.604 21.0695C53.448 20.7215 53.202 20.4215 52.866 20.1695C52.53 19.9055 52.062 19.7735 51.462 19.7735C50.034 19.7735 49.284 20.5295 49.212 22.0415C49.2 22.3775 49.194 22.8995 49.194 23.6075C49.194 24.3035 49.2 24.8255 49.212 25.1735C49.284 26.7575 50.052 27.5495 51.516 27.5495C52.224 27.5495 52.788 27.3695 53.208 27.0095C53.64 26.6375 53.856 26.0735 53.856 25.3175V24.9755H52.164C52.032 24.9755 51.924 24.9335 51.84 24.8495C51.756 24.7535 51.714 24.6395 51.714 24.5075V23.1755C51.714 23.0435 51.756 22.9355 51.84 22.8515C51.924 22.7555 52.032 22.7075 52.164 22.7075H56.7C56.832 22.7075 56.94 22.7555 57.024 22.8515C57.108 22.9355 57.15 23.0435 57.15 23.1755V25.2275C57.15 26.2475 56.916 27.1295 56.448 27.8735C55.98 28.6055 55.314 29.1695 54.45 29.5655C53.598 29.9495 52.602 30.1415 51.462 30.1415ZM63.4451 30.1415C61.9571 30.1415 60.8111 29.7875 60.0071 29.0795C59.2031 28.3715 58.7651 27.3755 58.6931 26.0915C58.6811 25.9355 58.6751 25.6655 58.6751 25.2815C58.6751 24.8975 58.6811 24.6275 58.6931 24.4715C58.7651 23.1995 59.2151 22.2095 60.0431 21.5015C60.8711 20.7815 62.0051 20.4215 63.4451 20.4215C64.8971 20.4215 66.0371 20.7815 66.8651 21.5015C67.6931 22.2095 68.1431 23.1995 68.2151 24.4715C68.2271 24.6275 68.2331 24.8975 68.2331 25.2815C68.2331 25.6655 68.2271 25.9355 68.2151 26.0915C68.1431 27.3755 67.7051 28.3715 66.9011 29.0795C66.0971 29.7875 64.9451 30.1415 63.4451 30.1415ZM63.4451 27.9455C63.9731 27.9455 64.3631 27.7895 64.6151 27.4775C64.8671 27.1535 65.0111 26.6615 65.0471 26.0015C65.0591 25.8815 65.0651 25.6415 65.0651 25.2815C65.0651 24.9215 65.0591 24.6815 65.0471 24.5615C65.0111 23.9135 64.8611 23.4275 64.5971 23.1035C64.3451 22.7795 63.9611 22.6175 63.4451 22.6175C62.4491 22.6175 61.9211 23.2655 61.8611 24.5615L61.8431 25.2815L61.8611 26.0015C61.8851 26.6615 62.0231 27.1535 62.2751 27.4775C62.5391 27.7895 62.9291 27.9455 63.4451 27.9455Z" fill="black"/>
<path d="M75.385 30.1415C73.669 30.1415 72.325 29.7275 71.353 28.8995C70.393 28.0595 69.883 26.8475 69.823 25.2635C69.811 24.9395 69.805 24.4115 69.805 23.6795C69.805 22.9355 69.811 22.3955 69.823 22.0595C69.883 20.4995 70.405 19.2995 71.389 18.4595C72.373 17.6075 73.705 17.1815 75.385 17.1815C76.441 17.1815 77.389 17.3615 78.229 17.7215C79.069 18.0695 79.729 18.5735 80.209 19.2335C80.701 19.8815 80.953 20.6435 80.965 21.5195V21.5555C80.965 21.6515 80.923 21.7355 80.839 21.8075C80.767 21.8675 80.683 21.8975 80.587 21.8975H78.157C78.001 21.8975 77.881 21.8675 77.797 21.8075C77.713 21.7355 77.641 21.6095 77.581 21.4295C77.413 20.8175 77.149 20.3915 76.789 20.1515C76.429 19.8995 75.955 19.7735 75.367 19.7735C73.951 19.7735 73.219 20.5655 73.171 22.1495C73.159 22.4735 73.153 22.9715 73.153 23.6435C73.153 24.3155 73.159 24.8255 73.171 25.1735C73.219 26.7575 73.951 27.5495 75.367 27.5495C75.955 27.5495 76.435 27.4235 76.807 27.1715C77.179 26.9075 77.437 26.4815 77.581 25.8935C77.629 25.7135 77.695 25.5935 77.779 25.5335C77.863 25.4615 77.989 25.4255 78.157 25.4255H80.587C80.695 25.4255 80.785 25.4615 80.857 25.5335C80.941 25.6055 80.977 25.6955 80.965 25.8035C80.953 26.6795 80.701 27.4475 80.209 28.1075C79.729 28.7555 79.069 29.2595 78.229 29.6195C77.389 29.9675 76.441 30.1415 75.385 30.1415ZM87.0877 30.1415C85.5997 30.1415 84.4537 29.7875 83.6497 29.0795C82.8457 28.3715 82.4077 27.3755 82.3357 26.0915C82.3237 25.9355 82.3177 25.6655 82.3177 25.2815C82.3177 24.8975 82.3237 24.6275 82.3357 24.4715C82.4077 23.1995 82.8577 22.2095 83.6857 21.5015C84.5137 20.7815 85.6477 20.4215 87.0877 20.4215C88.5397 20.4215 89.6797 20.7815 90.5077 21.5015C91.3357 22.2095 91.7857 23.1995 91.8577 24.4715C91.8697 24.6275 91.8757 24.8975 91.8757 25.2815C91.8757 25.6655 91.8697 25.9355 91.8577 26.0915C91.7857 27.3755 91.3477 28.3715 90.5437 29.0795C89.7397 29.7875 88.5877 30.1415 87.0877 30.1415ZM87.0877 27.9455C87.6157 27.9455 88.0057 27.7895 88.2577 27.4775C88.5097 27.1535 88.6537 26.6615 88.6897 26.0015C88.7017 25.8815 88.7077 25.6415 88.7077 25.2815C88.7077 24.9215 88.7017 24.6815 88.6897 24.5615C88.6537 23.9135 88.5037 23.4275 88.2397 23.1035C87.9877 22.7795 87.6037 22.6175 87.0877 22.6175C86.0917 22.6175 85.5637 23.2655 85.5037 24.5615L85.4857 25.2815L85.5037 26.0015C85.5277 26.6615 85.6657 27.1535 85.9177 27.4775C86.1817 27.7895 86.5717 27.9455 87.0877 27.9455ZM94.1136 29.9615C93.9816 29.9615 93.8736 29.9195 93.7896 29.8355C93.7056 29.7515 93.6636 29.6435 93.6636 29.5115V21.0515C93.6636 20.9195 93.7056 20.8115 93.7896 20.7275C93.8736 20.6435 93.9816 20.6015 94.1136 20.6015H96.1836C96.3156 20.6015 96.4236 20.6495 96.5076 20.7455C96.6036 20.8295 96.6516 20.9315 96.6516 21.0515V21.7715C97.3116 20.9915 98.1996 20.6015 99.3156 20.6015H100.108C100.24 20.6015 100.348 20.6435 100.432 20.7275C100.516 20.8115 100.558 20.9195 100.558 21.0515V22.9055C100.558 23.0255 100.516 23.1335 100.432 23.2295C100.348 23.3135 100.24 23.3555 100.108 23.3555H98.3616C97.8696 23.3555 97.4856 23.4935 97.2096 23.7695C96.9456 24.0335 96.8136 24.4115 96.8136 24.9035V29.5115C96.8136 29.6435 96.7656 29.7515 96.6696 29.8355C96.5856 29.9195 96.4776 29.9615 96.3456 29.9615H94.1136ZM106.178 30.1415C104.69 30.1415 103.544 29.7875 102.74 29.0795C101.936 28.3715 101.498 27.3755 101.426 26.0915C101.414 25.9355 101.408 25.6655 101.408 25.2815C101.408 24.8975 101.414 24.6275 101.426 24.4715C101.498 23.1995 101.948 22.2095 102.776 21.5015C103.604 20.7815 104.738 20.4215 106.178 20.4215C107.63 20.4215 108.77 20.7815 109.598 21.5015C110.426 22.2095 110.876 23.1995 110.948 24.4715C110.96 24.6275 110.966 24.8975 110.966 25.2815C110.966 25.6655 110.96 25.9355 110.948 26.0915C110.876 27.3755 110.438 28.3715 109.634 29.0795C108.83 29.7875 107.678 30.1415 106.178 30.1415ZM106.178 27.9455C106.706 27.9455 107.096 27.7895 107.348 27.4775C107.6 27.1535 107.744 26.6615 107.78 26.0015C107.792 25.8815 107.798 25.6415 107.798 25.2815C107.798 24.9215 107.792 24.6815 107.78 24.5615C107.744 23.9135 107.594 23.4275 107.33 23.1035C107.078 22.7795 106.694 22.6175 106.178 22.6175C105.182 22.6175 104.654 23.2655 104.594 24.5615L104.576 25.2815L104.594 26.0015C104.618 26.6615 104.756 27.1535 105.008 27.4775C105.272 27.7895 105.662 27.9455 106.178 27.9455ZM113.203 29.9615C113.071 29.9615 112.963 29.9195 112.879 29.8355C112.795 29.7515 112.753 29.6435 112.753 29.5115V21.0515C112.753 20.9195 112.795 20.8115 112.879 20.7275C112.963 20.6435 113.071 20.6015 113.203 20.6015H115.273C115.405 20.6015 115.513 20.6435 115.597 20.7275C115.693 20.8115 115.741 20.9195 115.741 21.0515V21.7355C116.065 21.3395 116.479 21.0215 116.983 20.7815C117.499 20.5415 118.081 20.4215 118.729 20.4215C119.785 20.4215 120.643 20.7815 121.303 21.5015C121.963 22.2095 122.293 23.2055 122.293 24.4895V29.5115C122.293 29.6315 122.251 29.7395 122.167 29.8355C122.083 29.9195 121.975 29.9615 121.843 29.9615H119.575C119.455 29.9615 119.347 29.9195 119.251 29.8355C119.167 29.7395 119.125 29.6315 119.125 29.5115V24.5975C119.125 24.0335 118.987 23.6015 118.711 23.3015C118.435 22.9895 118.039 22.8335 117.523 22.8335C117.019 22.8335 116.623 22.9895 116.335 23.3015C116.047 23.6015 115.903 24.0335 115.903 24.5975V29.5115C115.903 29.6315 115.861 29.7395 115.777 29.8355C115.693 29.9195 115.585 29.9615 115.453 29.9615H113.203ZM127.128 30.1415C126.492 30.1415 125.91 30.0215 125.382 29.7815C124.866 29.5295 124.458 29.1935 124.158 28.7735C123.87 28.3415 123.726 27.8675 123.726 27.3515C123.726 26.5235 124.062 25.8575 124.734 25.3535C125.418 24.8495 126.354 24.5015 127.542 24.3095L129.792 23.9675V23.7155C129.792 23.2595 129.696 22.9235 129.504 22.7075C129.312 22.4915 128.988 22.3835 128.532 22.3835C128.256 22.3835 128.028 22.4315 127.848 22.5275C127.668 22.6235 127.482 22.7555 127.29 22.9235C127.122 23.0675 126.996 23.1635 126.912 23.2115C126.876 23.3075 126.81 23.3555 126.714 23.3555H124.752C124.632 23.3555 124.53 23.3195 124.446 23.2475C124.374 23.1635 124.344 23.0675 124.356 22.9595C124.368 22.6355 124.524 22.2755 124.824 21.8795C125.136 21.4835 125.604 21.1415 126.228 20.8535C126.864 20.5655 127.644 20.4215 128.568 20.4215C130.044 20.4215 131.136 20.7515 131.844 21.4115C132.552 22.0595 132.906 22.9355 132.906 24.0395V29.5115C132.906 29.6315 132.864 29.7395 132.78 29.8355C132.696 29.9195 132.588 29.9615 132.456 29.9615H130.368C130.248 29.9615 130.14 29.9195 130.044 29.8355C129.96 29.7395 129.918 29.6315 129.918 29.5115V28.8815C129.654 29.2535 129.282 29.5595 128.802 29.7995C128.334 30.0275 127.776 30.1415 127.128 30.1415ZM127.974 28.0895C128.526 28.0895 128.97 27.9095 129.306 27.5495C129.654 27.1895 129.828 26.6615 129.828 25.9655V25.7135L128.298 25.9835C127.218 26.1755 126.678 26.5535 126.678 27.1175C126.678 27.4175 126.804 27.6575 127.056 27.8375C127.308 28.0055 127.614 28.0895 127.974 28.0895Z" fill="#EC5863"/>
<path d="M13.8266 5.18216C15.2067 4.75543 16.7644 5.42933 17.305 6.68673C17.7189 7.64941 17.416 8.67421 16.6333 9.29377L17.1092 10.4383L17.8291 11.2203C17.9935 11.3993 18.2363 11.4896 18.4757 11.4683C19.1211 11.4109 19.765 11.4266 20.398 11.508C20.6125 11.5358 20.8227 11.4746 20.9711 11.3368L21.4545 10.89L21.7864 9.87773C21.4582 9.45842 21.3326 8.91201 21.5 8.40107C21.7842 7.53496 22.7984 7.11228 23.7277 7.49705C24.5281 7.82812 24.9876 8.67769 24.7843 9.45011C24.6552 9.94212 24.2969 10.3031 23.8461 10.4739L23.4786 11.5957L23.594 12.2229C23.6337 12.4385 23.7742 12.6299 23.9735 12.748C24.6439 13.1469 25.2638 13.6288 25.8126 14.1811C25.997 14.367 26.2654 14.4521 26.5188 14.4105L27.8233 14.1968L29.2792 13.4549C29.262 12.7594 29.628 12.098 30.3015 11.7547C31.3199 11.236 32.6476 11.6425 33.2366 12.6636C33.7683 13.5848 33.4957 14.7157 32.6113 15.248C31.9207 15.6628 31.0584 15.6221 30.38 15.2313L28.9154 15.9772L28.112 16.7974C27.8964 17.0174 27.8281 17.3354 27.9243 17.6377C27.9248 17.6395 27.9252 17.6407 27.9258 17.6425C28.0903 18.1635 28.1976 18.6853 28.2526 19.2012C28.2848 19.5085 28.4768 19.7897 28.7672 19.9444L29.8751 20.5349L32.0454 20.9847C32.4142 20.68 32.9324 20.5424 33.4709 20.6535C34.4365 20.8539 35.0866 21.7769 34.8733 22.6812C34.6898 23.4555 33.9019 23.9518 33.0549 23.8253C32.4773 23.739 32.0012 23.3961 31.7359 22.9458L29.5516 22.4935L28.2185 22.6103C27.9728 22.6323 27.7626 22.7733 27.6696 22.9859C27.2995 23.8249 26.7748 24.5913 26.1166 25.247C25.9531 25.4099 25.8981 25.6483 25.9676 25.875L26.3441 27.1091L27.2093 28.3571C28.1082 28.2542 29.0616 28.6527 29.6109 29.4454C30.3495 30.5104 30.0809 31.8848 29.0138 32.5275C27.9472 33.1701 26.4526 32.8341 25.7009 31.7817C25.1745 31.045 25.1371 30.1537 25.5176 29.4584L24.5991 28.1337L23.497 27.2644C23.3338 27.1349 23.1163 27.0957 22.9249 27.1558C22.7125 27.2226 22.4956 27.2815 22.2734 27.332C21.0661 27.6065 19.8391 27.611 18.664 27.3881C18.4917 27.3558 18.3182 27.3971 18.191 27.5014L17.6327 27.9601L17.2407 28.9497C17.5454 29.3846 17.639 29.9344 17.4414 30.4337C17.1056 31.2809 16.0645 31.6478 15.1562 31.2162C14.374 30.8445 13.9631 29.975 14.212 29.2171C14.3705 28.7344 14.7499 28.3941 15.2119 28.2482L15.6461 27.1515L15.5232 26.1737C14.6503 25.6402 13.8662 24.9653 13.2166 24.1755L11.7595 24.2707L10.4142 24.8745C10.4543 25.7473 10.0117 26.564 9.19694 26.9419C8.0457 27.4755 6.58868 26.9319 5.94295 25.7271C5.29741 24.5229 5.70652 23.114 6.85776 22.5805C7.71927 22.181 8.75142 22.3848 9.48714 23.0177L10.7559 22.4478L11.6188 21.5605C11.6752 21.5024 11.6939 21.419 11.6689 21.3399L11.6685 21.3387C11.2022 19.8621 11.1915 18.3827 11.558 17.0339C11.5777 16.9599 11.558 16.8789 11.5031 16.818L10.6991 15.9185L9.00472 15.0402C8.55308 15.2188 8.00949 15.2026 7.52292 14.9501C6.64391 14.494 6.29571 13.45 6.78175 12.6618C7.20848 11.9707 8.16148 11.731 8.95601 12.1145C9.4703 12.3626 9.81229 12.8088 9.92606 13.2947L11.6204 14.173L12.8091 14.3131C12.8916 14.323 12.9705 14.2923 13.0206 14.2331C13.5354 13.6176 14.1552 13.0792 14.8657 12.6432C15.0605 12.523 15.177 12.3178 15.172 12.0905L15.1477 11.0686L14.6402 9.84902C13.6308 9.75112 12.6993 9.14543 12.3061 8.23104C11.7654 6.97365 12.4463 5.60829 13.8266 5.18216Z" fill="#EC5863"/>
<path d="M25.8155 18.1141C24.8025 14.9062 21.2854 12.9186 17.96 13.6746C14.6345 14.4307 12.76 17.644 13.773 20.8519C14.7861 24.0598 18.3031 26.0474 21.6286 25.2914C24.954 24.5353 26.8286 21.322 25.8155 18.1141Z" fill="#F58A97"/>
<path d="M20.9778 23.4535C17.9083 24.1751 14.7154 22.644 13.4165 19.9706C13.4578 20.2693 13.5237 20.5696 13.6153 20.8697C14.592 24.0678 18.1295 26.0148 21.5168 25.2185C24.9041 24.4221 26.8581 21.1842 25.8814 17.9861C25.7897 17.686 25.6756 17.397 25.5411 17.1202C25.9397 20.0053 24.0472 22.7319 20.9778 23.4535Z" fill="#F07281"/>
<path d="M11.2817 31.8008C10.9973 30.8906 9.99572 30.3298 9.04468 30.5483C8.09364 30.7668 7.55326 31.6819 7.83771 32.5922C8.12216 33.5025 9.12372 34.0632 10.0748 33.8447C11.0258 33.6262 11.5662 32.7111 11.2817 31.8008Z" fill="#EB5569"/>
<path d="M34.0826 26.6824C33.8948 26.0811 33.2332 25.7107 32.605 25.855C31.9769 25.9994 31.6199 26.6038 31.8078 27.205C31.9957 27.8063 32.6572 28.1767 33.2854 28.0324C33.9136 27.888 34.2705 27.2836 34.0826 26.6824Z" fill="#EB5569"/>
<path d="M30.8017 6.54131C30.525 5.6557 29.5506 5.11011 28.6253 5.3227C27.7001 5.53529 27.1743 6.42555 27.4511 7.31116C27.7278 8.19677 28.7022 8.74237 29.6275 8.52978C30.5527 8.31719 31.0785 7.42692 30.8017 6.54131Z" fill="#EB5569"/>
<path d="M20.1571 21.28C19.8991 20.4543 18.9907 19.9456 18.1281 20.1438C17.2654 20.342 16.7753 21.172 17.0333 21.9977C17.2913 22.8233 18.1997 23.332 19.0624 23.1338C19.925 22.9356 20.4151 22.1056 20.1571 21.28Z" fill="#EB5569"/>
<path d="M24.2847 19.004C24.1091 18.442 23.4907 18.0958 22.9036 18.2307C22.3164 18.3656 21.9828 18.9306 22.1584 19.4926C22.3341 20.0546 22.9524 20.4008 23.5395 20.2659C24.1267 20.131 24.4603 19.566 24.2847 19.004Z" fill="#EB5569"/>
<path d="M19.9359 16.7168C19.7884 16.2449 19.2692 15.9542 18.7761 16.0675C18.2831 16.1808 18.003 16.6552 18.1504 17.1271C18.2979 17.599 18.8171 17.8897 19.3102 17.7764C19.8032 17.6631 20.0833 17.1887 19.9359 16.7168Z" fill="#EB5569"/>
</svg>
